<mxfile host="app.diagrams.net" modified="2024-03-07T06:07:27.931Z" agent="Mozilla/5.0 (Windows NT 10.0; Win64; x64) AppleWebKit/537.36 (KHTML, like Gecko) Chrome/122.0.0.0 Safari/537.36 Edg/122.0.0.0" etag="hJKoxIsnbxE3LwlITlFP" version="24.0.2" type="github">
  <diagram name="第 1 页" id="VrsK1vObfHcU3kOzhvN1">
    <mxGraphModel dx="1042" dy="603" grid="1" gridSize="10" guides="1" tooltips="1" connect="1" arrows="1" fold="1" page="1" pageScale="1" pageWidth="1100" pageHeight="850" math="0" shadow="0">
      <root>
        <mxCell id="0" />
        <mxCell id="1" parent="0" />
        <mxCell id="SqWFuTal-D1tv2gkHb5A-1" value="Pool" style="swimlane;childLayout=stackLayout;resizeParent=1;resizeParentMax=0;startSize=20;html=1;" vertex="1" parent="1">
          <mxGeometry x="80" y="30" width="1030" height="560" as="geometry" />
        </mxCell>
        <mxCell id="SqWFuTal-D1tv2gkHb5A-2" value="WebFilter" style="swimlane;startSize=20;html=1;" vertex="1" parent="SqWFuTal-D1tv2gkHb5A-1">
          <mxGeometry y="20" width="370" height="540" as="geometry" />
        </mxCell>
        <mxCell id="SqWFuTal-D1tv2gkHb5A-7" value="CacheBodyWebFilter" style="swimlane;startSize=60;" vertex="1" parent="SqWFuTal-D1tv2gkHb5A-2">
          <mxGeometry y="20" width="130" height="520" as="geometry" />
        </mxCell>
        <mxCell id="SqWFuTal-D1tv2gkHb5A-14" value="XssRequestWebFilter" style="swimlane;startSize=60;" vertex="1" parent="SqWFuTal-D1tv2gkHb5A-2">
          <mxGeometry x="130" y="20" width="130" height="520" as="geometry" />
        </mxCell>
        <mxCell id="SqWFuTal-D1tv2gkHb5A-16" value="Container" style="swimlane;startSize=60;" vertex="1" parent="SqWFuTal-D1tv2gkHb5A-2">
          <mxGeometry x="260" y="20" width="110" height="520" as="geometry" />
        </mxCell>
        <mxCell id="SqWFuTal-D1tv2gkHb5A-3" value="&lt;pre style=&quot;background-color:#ffffff;color:#080808;font-family:&#39;JetBrains Mono&#39;,monospace;font-size:12.0pt;&quot;&gt;&lt;span style=&quot;color:#000000;&quot;&gt;SecurityWebFluxConfig&lt;/span&gt;&lt;/pre&gt;" style="swimlane;startSize=20;html=1;" vertex="1" parent="SqWFuTal-D1tv2gkHb5A-1">
          <mxGeometry x="370" y="20" width="260" height="540" as="geometry" />
        </mxCell>
        <mxCell id="SqWFuTal-D1tv2gkHb5A-26" value="CustomAuthenticationManager" style="swimlane;startSize=60;" vertex="1" parent="SqWFuTal-D1tv2gkHb5A-3">
          <mxGeometry y="20" width="140" height="520" as="geometry" />
        </mxCell>
        <mxCell id="SqWFuTal-D1tv2gkHb5A-27" value="CustomAuthorizationManager" style="swimlane;startSize=60;" vertex="1" parent="SqWFuTal-D1tv2gkHb5A-3">
          <mxGeometry x="140" y="20" width="120" height="520" as="geometry" />
        </mxCell>
        <mxCell id="SqWFuTal-D1tv2gkHb5A-4" value="Lane 3" style="swimlane;startSize=20;html=1;" vertex="1" parent="SqWFuTal-D1tv2gkHb5A-1">
          <mxGeometry x="630" y="20" width="400" height="540" as="geometry" />
        </mxCell>
      </root>
    </mxGraphModel>
  </diagram>
</mxfile>
